<svg data-v-423bf9ae="" xmlns="http://www.w3.org/2000/svg" viewBox="0 0 369 90" class="iconLeft"><!----><!----><!----><g data-v-423bf9ae="" id="6c5814be-36d0-49ad-8aa1-c57932a897bf" fill="white" transform="matrix(4.773269805623416,0,0,4.773269805623416,105.65631898754677,6.980906169483944)"><path d="M4.47 11.59C6.51 11.59 7.85 9.98 7.85 7.98C7.85 5.98 6.51 4.37 4.47 4.37C3.30 4.37 2.48 4.84 1.96 5.60L1.96 4.48L0.91 4.48L0.91 14.25L1.96 14.25L1.96 10.35C2.48 11.10 3.30 11.59 4.47 11.59ZM4.33 5.32C5.88 5.32 6.80 6.54 6.80 7.98C6.80 9.42 5.88 10.64 4.33 10.64C2.77 10.64 1.90 9.42 1.90 7.98C1.90 6.54 2.77 5.32 4.33 5.32ZM12.26 4.37C10.12 4.37 8.79 5.98 8.79 7.98C8.79 9.98 10.12 11.59 12.26 11.59C14.41 11.59 15.74 9.98 15.74 7.98C15.74 5.98 14.41 4.37 12.26 4.37ZM12.26 10.64C10.71 10.64 9.84 9.42 9.84 7.98C9.84 6.54 10.71 5.32 12.26 5.32C13.82 5.32 14.69 6.54 14.69 7.98C14.69 9.42 13.82 10.64 12.26 10.64ZM18.17 1.68L17.12 1.68L17.12 11.48L18.17 11.48ZM21.04 1.68L19.99 1.68L19.99 11.48L21.04 11.48ZM25.98 10.64C24.57 10.64 23.66 9.65 23.51 8.40L29.37 8.40L29.37 7.98C29.37 5.98 28.04 4.37 25.90 4.37C23.76 4.37 22.43 5.98 22.43 7.98C22.43 9.98 23.83 11.59 25.97 11.59C27.64 11.59 28.67 10.72 29.16 9.46L28.01 9.46C27.64 10.16 26.96 10.64 25.98 10.64ZM25.90 5.32C27.24 5.32 28.08 6.23 28.28 7.42L23.52 7.42C23.72 6.23 24.56 5.32 25.90 5.32ZM30.66 4.48L30.66 11.48L31.71 11.48L31.71 7.45C31.71 6.19 32.66 5.32 33.82 5.32C34.97 5.32 35.78 6.16 35.78 7.43L35.78 11.48L36.83 11.48L36.83 7.41C36.83 5.42 35.48 4.37 34.03 4.37C32.90 4.37 32.21 4.90 31.71 5.57L31.71 4.48ZM38.42 10.05L38.42 11.48L39.77 11.48L39.77 10.05ZM41.43 4.48L41.43 11.48L42.48 11.48L42.48 7.45C42.48 6.19 43.43 5.32 44.59 5.32C45.74 5.32 46.55 6.16 46.55 7.43L46.55 11.48L47.60 11.48L47.60 7.41C47.60 5.42 46.24 4.37 44.80 4.37C43.67 4.37 42.98 4.90 42.48 5.57L42.48 4.48ZM55.17 4.48L54.03 4.48L51.73 10.22L49.48 4.48L48.31 4.48L51.17 11.38L49.90 14.25L51.03 14.25Z"></path></g><!----><g data-v-423bf9ae="" id="74dc2944-3c7b-4924-b711-d15ca5958312" transform="matrix(1.0215895098908114,0,0,1.0215895098908114,-5.128479177972231,-5.128479177972231)" stroke="none" fill="white"><g stroke-linecap="round" stroke-linejoin="round" stroke-miterlimit="10"><g><path d="M50.049 5.951s2.054 6.494 6.398 12.892c4.346 6.398 6.118 8.206 6.495 12.893.67 8.384-4.013 17.572-12.894 17.954h-.055c-8.882-.382-13.622-10.314-12.893-17.954.447-4.681 2.149-6.494 6.494-12.893 4.345-6.398 6.398-12.892 6.398-12.892h.057zM49.951 94.049s-2.053-6.494-6.398-12.893c-4.345-6.397-6.119-8.205-6.494-12.893-.671-8.384 4.011-17.571 12.893-17.953h.055c8.881.382 13.622 10.314 12.893 17.953-.447 4.682-2.148 6.495-6.495 12.893-4.345 6.398-6.398 12.893-6.398 12.893h-.056z"></path><g><path d="M94.049 50.048s-6.494 2.055-12.893 6.4c-6.397 4.345-8.204 6.117-12.892 6.493-8.384.671-17.572-4.012-17.954-12.894v-.055c.382-8.881 10.314-13.621 17.954-12.892 4.681.447 6.494 2.149 12.892 6.494s12.893 6.397 12.893 6.397v.057zM5.951 49.951s6.494-2.054 12.893-6.398c6.398-4.345 8.205-6.119 12.893-6.494 8.384-.671 17.571 4.011 17.954 12.893v.056c-.382 8.88-10.314 13.621-17.954 12.892-4.681-.446-6.494-2.148-12.893-6.493-6.398-4.346-12.893-6.399-12.893-6.399v-.057z"></path></g></g><g><path d="M81.183 18.888s-3.141 6.043-4.593 13.641c-1.451 7.597-1.476 10.128-4.523 13.708-5.454 6.403-15.261 9.589-21.812 3.579l-.039-.039c-6.01-6.55-2.338-16.925 3.579-21.812 3.627-2.994 6.111-3.073 13.709-4.524 7.596-1.452 13.64-4.592 13.64-4.592l.039.039zM18.818 81.112s3.14-6.044 4.592-13.641c1.452-7.596 1.476-10.128 4.524-13.708 5.454-6.402 15.261-9.589 21.812-3.578l.039.039c6.009 6.55 2.337 16.925-3.579 21.811-3.626 2.995-6.111 3.072-13.708 4.524-7.597 1.451-13.641 4.592-13.641 4.592l-.039-.039z"></path><g><path d="M81.113 81.183s-6.045-3.141-13.642-4.593c-7.596-1.451-10.128-1.476-13.708-4.523-6.402-5.454-9.589-15.262-3.579-21.812l.039-.039c6.55-6.01 16.925-2.338 21.811 3.58 2.995 3.625 3.072 6.109 4.524 13.708 1.452 7.596 4.593 13.64 4.593 13.64l-.038.039zM18.888 18.818s6.044 3.14 13.641 4.592c7.597 1.452 10.128 1.476 13.708 4.524 6.403 5.454 9.589 15.261 3.579 21.812l-.039.039c-6.55 6.01-16.925 2.338-21.812-3.579-2.994-3.625-3.073-6.111-4.524-13.708-1.452-7.597-4.592-13.641-4.592-13.641l.039-.039z"></path></g></g><circle cx="50" cy="50" r="1.709"></circle></g></g><!----></svg>