<?xml version="1.0" encoding="utf-8"?>
<!-- Generator: Adobe Illustrator 20.1.0, SVG Export Plug-In . SVG Version: 6.00 Build 0)  -->
<svg version="1.1" id="Layer_1" xmlns="http://www.w3.org/2000/svg" xmlns:xlink="http://www.w3.org/1999/xlink" x="0px" y="0px"
	 viewBox="0 0 180 45" style="enable-background:new 0 0 180 45;" xml:space="preserve">
<style type="text/css">
	.st0{fill:#FFFFFF;}
</style>
<g>
	<path class="st0" d="M0,26.9L89,0.1C89.7,0,90.3,0,91,0.1l89,26.8L90.8,6.6c-0.5-0.1-1.1-0.1-1.6,0L0,26.9z"/>
	<path class="st0" d="M0,28.7l89.4-16.3c0.4-0.1,0.8-0.1,1.2,0L180,28.7L90.4,19c-0.3,0-0.5,0-0.8,0L0,28.7z"/>
</g>
<g>
	<path class="st0" d="M10.6,37.4H8.7v-0.8c0-0.1,0-0.1-0.1-0.1H2.2c-0.1,0-0.1,0-0.1,0.1v2.1c0,0.1,0,0.1,0.1,0.1h6.4
		c0.3,0,0.5,0.1,0.8,0.2c0.2,0.1,0.5,0.2,0.6,0.4c0.2,0.2,0.3,0.4,0.4,0.6c0.1,0.2,0.2,0.5,0.2,0.8V43c0,0.3-0.1,0.5-0.2,0.8
		c-0.1,0.2-0.3,0.5-0.4,0.6c-0.2,0.2-0.4,0.3-0.6,0.4C9.2,44.9,8.9,45,8.6,45H2.2c-0.3,0-0.5-0.1-0.8-0.2c-0.2-0.1-0.5-0.2-0.6-0.4
		c-0.2-0.2-0.3-0.4-0.4-0.6c-0.1-0.2-0.2-0.5-0.2-0.8v-0.8h1.9V43c0,0.1,0,0.1,0.1,0.1h6.4c0.1,0,0.1,0,0.1-0.1v-2.1
		c0-0.1,0-0.1-0.1-0.1H2.2c-0.3,0-0.5-0.1-0.8-0.2c-0.2-0.1-0.5-0.2-0.6-0.4c-0.2-0.2-0.3-0.4-0.4-0.6c-0.1-0.2-0.2-0.5-0.2-0.8
		v-2.1c0-0.3,0.1-0.5,0.2-0.8c0.1-0.2,0.2-0.5,0.4-0.6C1,35,1.2,34.8,1.4,34.7c0.2-0.1,0.5-0.2,0.8-0.2h6.4c0.3,0,0.5,0.1,0.8,0.2
		c0.2,0.1,0.5,0.2,0.6,0.4c0.2,0.2,0.3,0.4,0.4,0.6c0.1,0.2,0.2,0.5,0.2,0.8V37.4z"/>
	<path class="st0" d="M23.8,34.6v1.9h-4.2V45h-1.9v-8.5h-4.3v-1.9H23.8z"/>
	<path class="st0" d="M37,39.4c0,0.3-0.1,0.5-0.2,0.8c-0.1,0.2-0.3,0.5-0.4,0.6c-0.2,0.2-0.4,0.3-0.6,0.4c-0.2,0.1-0.5,0.2-0.8,0.2
		h-0.6l2.6,3.1V45H35l-3-3.6h-3.4h0V45h-1.9V34.6H35c0.3,0,0.5,0.1,0.8,0.2c0.2,0.1,0.5,0.3,0.6,0.4c0.2,0.2,0.3,0.4,0.4,0.6
		c0.1,0.2,0.2,0.5,0.2,0.8V39.4z M35,39.5c0.1,0,0.1,0,0.1-0.1v-2.8c0-0.1,0-0.1-0.1-0.1h-6.4c-0.1,0-0.1,0-0.1,0.1v2.8
		c0,0.1,0,0.1,0.1,0.1H35z"/>
	<path class="st0" d="M48.7,34.6c0.3,0,0.5,0.1,0.8,0.2c0.2,0.1,0.5,0.2,0.6,0.4c0.2,0.2,0.3,0.4,0.4,0.6c0.1,0.2,0.2,0.5,0.2,0.8
		V43c0,0.3-0.1,0.5-0.2,0.8c-0.1,0.2-0.3,0.5-0.4,0.6c-0.2,0.2-0.4,0.3-0.6,0.4C49.2,44.9,49,45,48.7,45h-6.4
		c-0.3,0-0.5-0.1-0.8-0.2c-0.2-0.1-0.5-0.2-0.6-0.4c-0.2-0.2-0.3-0.4-0.4-0.6c-0.1-0.2-0.2-0.5-0.2-0.8v-6.4c0-0.3,0.1-0.5,0.2-0.8
		c0.1-0.2,0.2-0.5,0.4-0.6c0.2-0.2,0.4-0.3,0.6-0.4c0.2-0.1,0.5-0.2,0.8-0.2H48.7z M48.7,43.1c0.1,0,0.1,0,0.1-0.1v-6.4
		c0-0.1,0-0.1-0.1-0.1h-6.4c-0.1,0-0.1,0-0.1,0.1V43c0,0.1,0,0.1,0.1,0.1H48.7z"/>
	<path class="st0" d="M62.5,34.6h1.9V45h-2.1l-6.4-7.6V45H54V34.6h2.1l6.4,7.6V34.6z"/>
	<path class="st0" d="M78.2,37.4h-1.9v-0.8c0-0.1,0-0.1-0.1-0.1h-6.4c-0.1,0-0.1,0-0.1,0.1V43c0,0.1,0,0.1,0.1,0.1h6.4
		c0.1,0,0.1,0,0.1-0.1v-2h-2.4v-1.9h4.3V43c0,0.3-0.1,0.5-0.2,0.8c-0.1,0.2-0.3,0.5-0.4,0.6c-0.2,0.2-0.4,0.3-0.6,0.4
		c-0.2,0.1-0.5,0.2-0.8,0.2h-6.4c-0.3,0-0.5-0.1-0.8-0.2c-0.2-0.1-0.5-0.2-0.6-0.4c-0.2-0.2-0.3-0.4-0.4-0.6
		c-0.1-0.2-0.2-0.5-0.2-0.8v-6.4c0-0.3,0.1-0.5,0.2-0.8c0.1-0.2,0.2-0.5,0.4-0.6c0.2-0.2,0.4-0.3,0.6-0.4c0.2-0.1,0.5-0.2,0.8-0.2
		h6.4c0.3,0,0.5,0.1,0.8,0.2c0.2,0.1,0.5,0.2,0.6,0.4c0.2,0.2,0.3,0.4,0.4,0.6c0.1,0.2,0.2,0.5,0.2,0.8V37.4z"/>
	<path class="st0" d="M90.3,34.6c0.2,0,0.5,0,0.7,0.1c0.2,0.1,0.4,0.2,0.6,0.4c0.2,0.2,0.3,0.3,0.4,0.6c0.1,0.2,0.1,0.4,0.1,0.7V45
		h-1.2v-3.8h-8.1V45h-1.2v-8.7c0-0.2,0-0.5,0.1-0.7c0.1-0.2,0.2-0.4,0.4-0.6c0.2-0.2,0.3-0.3,0.5-0.4c0.2-0.1,0.4-0.1,0.7-0.1H90.3z
		 M90.8,40v-3.7c0-0.2-0.1-0.3-0.2-0.4c-0.1-0.1-0.2-0.2-0.4-0.2h-6.9c-0.2,0-0.3,0.1-0.4,0.2c-0.1,0.1-0.2,0.2-0.2,0.4V40H90.8z"/>
	<path class="st0" d="M105.8,39.4c0,0.2,0,0.5-0.1,0.7c-0.1,0.2-0.2,0.4-0.4,0.6s-0.3,0.3-0.6,0.4c-0.2,0.1-0.4,0.1-0.7,0.1h-1.6
		l3.3,3.9h-1.5l-3.3-3.9h-3.8c-0.1,0-0.2,0-0.3,0c-0.1,0-0.2,0-0.3,0V45h-1.2V34.6h8.7c0.2,0,0.5,0,0.7,0.1c0.2,0.1,0.4,0.2,0.6,0.4
		s0.3,0.3,0.4,0.5c0.1,0.2,0.1,0.4,0.1,0.7V39.4z M104.1,39.9c0.2,0,0.3-0.1,0.4-0.2c0.1-0.1,0.2-0.2,0.2-0.4v-3.1
		c0-0.2-0.1-0.3-0.2-0.4c-0.1-0.1-0.2-0.2-0.4-0.2h-6.9c-0.2,0-0.3,0.1-0.4,0.2c-0.1,0.1-0.2,0.2-0.2,0.4v3.1c0,0.2,0.1,0.3,0.2,0.4
		c0.1,0.1,0.2,0.2,0.4,0.2H104.1z"/>
	<path class="st0" d="M119.3,34.6h1.6V45h-1.2v-9.1l-4.8,5.7l-4.8-5.7V45h-1.2V34.6h1.6l4.3,5.2L119.3,34.6z"/>
	<path class="st0" d="M139.8,34.6v1.2h-4.6V45H134v-9.2h-4.6v-1.2H139.8z"/>
	<path class="st0" d="M152.2,35.8h-8.3v3.4h6.7v1.2h-6.7v3.4h8.3V45h-9.5V34.6h9.5V35.8z"/>
	<path class="st0" d="M157.2,35.8c-0.2,0-0.3,0.1-0.4,0.2c-0.1,0.1-0.2,0.2-0.2,0.4v6.9c0,0.2,0.1,0.3,0.2,0.4
		c0.1,0.1,0.2,0.2,0.4,0.2h8.7V45h-8.7c-0.2,0-0.5,0-0.7-0.1c-0.2-0.1-0.4-0.2-0.6-0.4c-0.2-0.2-0.3-0.3-0.4-0.6
		c-0.1-0.2-0.1-0.4-0.1-0.7v-6.9c0-0.2,0-0.5,0.1-0.7c0.1-0.2,0.2-0.4,0.4-0.6c0.2-0.2,0.3-0.3,0.6-0.4c0.2-0.1,0.4-0.1,0.7-0.1h8.7
		v1.2H157.2z"/>
	<path class="st0" d="M179.8,34.6V45h-1.2v-4.6h-8.3V45h-1.2V34.6h1.2v4.6h8.3v-4.6H179.8z"/>
</g>
</svg>
